<?xml version="1.0" ?>
<!-- Uploaded to: SVG Repo, www.svgrepo.com, Generator: SVG Repo Mixer Tools -->
<svg width="800px" height="800px" viewBox="0 0 128 128" version="1.1" xml:space="preserve" xmlns="http://www.w3.org/2000/svg" xmlns:xlink="http://www.w3.org/1999/xlink">
<style type="text/css">
	.st0{fill:#1CA2BB;}
	.st1{fill:#EAC100;}
</style>
<g id="_x31_2_3D_Printing"/>
<g id="_x31_1_VR_Gear"/>
<g id="_x31_0_Virtual_reality"/>
<g id="_x39__Augmented_reality"/>
<g id="_x38__Teleport"/>
<g id="_x37__Glassess"/>
<g id="_x36__Folding_phone"/>
<g id="_x35__Drone"/>
<g id="_x34__Retina_scan"/>
<g id="_x33__Smartwatch"/>
<g id="_x32__Bionic_Arm"/>
<g id="_x31__Chip">
<g>
<rect class="st0" height="48" width="32" x="48" y="36"/>
<circle class="st1" cx="20" cy="28" r="8"/>
<circle class="st1" cx="20" cy="92" r="8"/>
<circle class="st1" cx="108" cy="52" r="8"/>
<circle class="st1" cx="96" cy="100" r="8"/>
<g>
<path d="M108,40c-5.2,0-9.6,3.3-11.3,8H84V32h-8V20h-8v12h-8V20h-8v12h-8v16H24v-8.7c4.7-1.7,8-6.1,8-11.3c0-6.6-5.4-12-12-12     S8,21.4,8,28c0,5.2,3.3,9.6,8,11.3V56h28v8H16v16.7c-4.7,1.7-8,6.1-8,11.3c0,6.6,5.4,12,12,12s12-5.4,12-12c0-5.2-3.3-9.6-8-11.3     V72h20v16h8v12h8V88h8v12h8V88h8V72h8v16.7c-4.7,1.7-8,6.1-8,11.3c0,6.6,5.4,12,12,12s12-5.4,12-12c0-5.2-3.3-9.6-8-11.3V64H84     v-8h12.7c1.7,4.7,6.1,8,11.3,8c6.6,0,12-5.4,12-12S114.6,40,108,40z M20,24c2.2,0,4,1.8,4,4s-1.8,4-4,4s-4-1.8-4-4S17.8,24,20,24     z M20,96c-2.2,0-4-1.8-4-4s1.8-4,4-4s4,1.8,4,4S22.2,96,20,96z M96,104c-2.2,0-4-1.8-4-4s1.8-4,4-4s4,1.8,4,4S98.2,104,96,104z      M76,80H52V40h24V80z M108,56c-2.2,0-4-1.8-4-4s1.8-4,4-4s4,1.8,4,4S110.2,56,108,56z"/>
<rect height="8" width="8" x="56" y="64"/>
</g>
</g>
</g>
</svg>