<?xml version="1.0" encoding="utf-8"?>
<!-- Uploaded to: SVG Repo, www.svgrepo.com, Generator: SVG Repo Mixer Tools -->
<svg width="800px" height="800px" viewBox="0 0 1024 1024" class="icon"  version="1.1" xmlns="http://www.w3.org/2000/svg"><path d="M993.763 493.538v35c0 13.331-6.04 26.666-18.135 37.137-140.149 121.422-280.35 242.796-420.49 364.219-11.813 10.24-25.813 15.501-42.454 15.501v-35c16.645 0 30.642-5.264 42.454-15.501 140.143-121.423 280.336-242.802 420.49-364.216 12.095-10.474 18.135-23.804 18.135-37.14z" fill="#E45D4F" /><path d="M30.239 528.368v-3.5-1.75-3.5-3.5-1.75-3.5-3.5-1.75-3.5-3.5-1.75-3.5c0 14.706 6.701 29.312 19.037 40.017C187.725 653.45 326.325 773.382 464.837 893.403c13.002 11.262 28.74 16.468 47.854 16.996v35c-19.108-0.528-34.852-5.735-47.854-16.996C326.325 808.382 187.725 688.45 49.276 568.386c-12.337-10.705-19.037-25.312-19.037-40.018z" fill="#E45D4F" /><path d="M510.786 76.601c16.263 0 32.546 5.362 44.946 16.097 139.949 121.188 279.9 242.378 419.818 363.587 24.241 20.995 24.295 53.413 0.079 74.396C835.48 652.1 695.28 773.476 555.141 894.897c-11.813 10.238-25.813 15.502-42.45 15.502-19.109-0.528-34.854-5.735-47.854-16.996C326.324 773.382 187.724 653.45 49.275 533.386c-19.581-16.987-24.96-43.81-11.895-65.25 3.919-6.438 8.669-11.829 14.465-16.849 138.108-119.552 276.179-239.135 414.262-358.72 12.296-10.639 28.478-15.966 44.679-15.966z" fill="#F2A09D" /><path d="M589.771 384.007c-9.498 1.733-20.446 11.859-20.588 19.855v-15.121c0.14-7.996 11.09-18.121 20.588-19.854V384.007z" fill="#DC4644" /><path d="M590.511 368.768v15.12c-1.348 0.185-2.733 0.548-4.122 1.059v-15.12c1.386-0.511 2.772-0.874 4.122-1.059M586.389 369.827v15.12c-1.843 0.679-3.688 1.617-5.443 2.742v-15.121c1.755-1.125 3.6-2.064 5.443-2.741M580.943 372.568v15.121c-2.716 1.736-5.229 3.918-7.229 6.277v-15.12c2.001-2.36 4.515-4.542 7.229-6.278" fill="#DC4644" /><path d="M573.714 378.846v15.12c-2.576 3.039-4.299 6.373-4.51 9.429v-15.121c0.211-3.055 1.935-6.389 4.51-9.428M569.204 388.276v15.12a6.684 6.684 0 0 0-0.021 0.466v-15.121c0.005-0.154 0.012-0.309 0.021-0.465" fill="#DC4644" /><path d="M589.771 384.007v-0.396-0.42-0.436-0.445-0.445-0.438-0.42-0.396-1.371-1.452-1.507-1.534-1.533-1.507-1.452-1.37c0.275-0.05 0.551-0.093 0.819-0.129a14.618 14.618 0 0 1 2.07-0.129c10.063 0.117 23.227 11.534 23.29 20.1V403.848c-0.064-8.566-13.229-19.982-23.29-20.1l-0.164-0.001a15.426 15.426 0 0 0-2.725 0.26z" fill="#DC4644" /><path d="M615.953 388.784V403.85c-0.064-8.566-13.229-19.982-23.29-20.1l-0.164-0.001c-0.624 0-1.263 0.044-1.906 0.13l-0.082 0.011v-15.12l0.082-0.011a14.794 14.794 0 0 1 2.07-0.129c10.063 0.117 23.227 11.534 23.29 20.1v0.054M590.511 368.768v15.12c-1.348 0.185-2.733 0.548-4.122 1.059v-15.12c1.386-0.511 2.772-0.874 4.122-1.059" fill="#DC4644" /><path d="M594.325 343.318c26.757 0.324 50.884 20.765 50.85 45.196a38.48 38.48 0 0 1-0.031 1.478c-1.016 24.687-23.331 43.768-52.524 44.365a51.15 51.15 0 0 1-0.547 0.009l-0.547 0.002c-27.678-0.085-51.782-21.09-51.344-43.668 0.012-0.46 0.027-0.919 0.06-1.381 0.013-0.182 0.022-0.364 0.041-0.547 0-25.99 22.416-44.916 52.472-45.451 0.308-0.005 0.619-0.008 0.927-0.008l0.643 0.005z m21.625 45.613c0.003-0.066 0.003-0.135 0.003-0.202-0.064-8.565-13.229-19.982-23.29-20.1l-0.164-0.001c-0.624 0-1.263 0.044-1.906 0.13-9.68 1.277-21.266 11.758-21.407 19.984a4.55 4.55 0 0 0-0.002 0.202c0.073 8.589 13.228 20.006 23.264 20.115 0.447 0 0.769-0.011 1.093-0.034 9.793-0.692 22.269-11.675 22.409-20.094" fill="#EA814E" /><path d="M437.692 452.613v15.12c0-0.89-0.311-1.886-0.95-3.107-8.295-15.769-12.408-32.383-12.408-49.725v-15.12c0 17.342 4.112 33.957 12.408 49.725 0.641 1.223 0.95 2.22 0.95 3.107z" fill="#DC4644" /><path d="M437.692 452.613v15.12c0-0.89-0.311-1.886-0.95-3.107-8.295-15.769-12.408-32.383-12.408-49.725v-15.12c0 17.342 4.112 33.957 12.408 49.725 0.641 1.223 0.95 2.22 0.95 3.107" fill="#DC4644" /><path d="M514.431 490.835v15.12c-1.538 0.09-2.69 0.827-4.473 2.301-0.411 0.342-0.854 0.72-1.341 1.14-10.62 9.203-20.844 18.04-31.03 26.903-1.916 1.661-2.867 2.922-2.865 4.182V525.36c-0.002-1.259 0.949-2.52 2.865-4.181 10.188-8.859 20.411-17.698 31.03-26.9 0.486-0.421 0.93-0.801 1.341-1.143 1.78-1.473 2.935-2.211 4.473-2.301z" fill="#DC4644" /><path d="M514.431 490.835v15.12c-0.13 0.007-0.261 0.021-0.387 0.037v-15.121c0.126-0.015 0.256-0.028 0.387-0.036M514.044 490.872v15.121c-0.349 0.048-0.678 0.13-1.006 0.252v-15.12a4.739 4.739 0 0 1 1.006-0.253M513.038 491.125v15.12c-0.42 0.154-0.833 0.369-1.271 0.646v-15.118a6.529 6.529 0 0 1 1.271-0.648" fill="#DC4644" /><path d="M511.768 491.772v15.118c-0.552 0.354-1.136 0.808-1.812 1.365-0.411 0.342-0.854 0.72-1.343 1.142-10.619 9.201-20.844 18.038-31.029 26.901-0.708 0.613-1.283 1.174-1.728 1.698v-15.12c0.442-0.523 1.02-1.083 1.728-1.698 10.186-8.859 20.412-17.7 31.029-26.9a88.68 88.68 0 0 1 1.343-1.143c0.677-0.557 1.261-1.01 1.812-1.363M475.855 522.877v15.119c-0.709 0.837-1.088 1.585-1.133 2.326v-15.12c0.048-0.741 0.424-1.489 1.133-2.325" fill="#DC4644" /><path d="M474.724 525.202v15.12c-0.002 0.053-0.004 0.104-0.004 0.157v-15.121c0-0.05 0.002-0.102 0.004-0.156" fill="#DC4644" /><path d="M760.887 393.377v15.12c0 10.26-0.393 20.505-2.842 30.681-5.605 23.343-17.601 43.823-36.452 61.148-13.371 12.285-27.182 24.166-44.396 32.598-22.545 11.029-46.688 16.772-72.57 16.772-3.346 0-6.694 0.039-10.042 0.081-3.29 0.038-6.582 0.077-9.87 0.077-10.995 0-21.958-0.443-32.729-2.819-10.198-2.248-20.193-5.232-30.083-8.367-1.262-0.403-2.349-0.658-3.313-0.658-1.712 0-3.064 0.796-4.396 2.976v-15.119c1.333-2.181 2.687-2.976 4.396-2.976 0.967 0 2.054 0.255 3.313 0.657 9.89 3.134 19.885 6.118 30.083 8.367 10.771 2.376 21.734 2.82 32.729 2.82 3.288 0 6.58-0.039 9.87-0.078 3.347-0.041 6.694-0.08 10.042-0.08 25.885 0 50.025-5.744 72.57-16.774 17.215-8.431 31.023-20.311 44.396-32.597 18.854-17.325 30.845-37.806 36.452-61.148 2.451-10.176 2.842-20.421 2.842-30.681z" fill="#DC4644" /><path d="M760.887 393.377v15.12c0 4.255-0.064 8.507-0.317 12.753v-15.12c0.25-4.245 0.317-8.498 0.317-12.753M760.567 406.13v15.12c-0.36 5.993-1.089 11.973-2.522 17.928-4.375 18.216-12.64 34.688-25.018 49.279v-15.121c12.378-14.59 20.644-31.063 25.018-49.279 1.434-5.955 2.162-11.935 2.522-17.927" fill="#DC4644" /><path d="M733.027 473.336v15.121a132.626 132.626 0 0 1-11.437 11.869c-9.928 9.121-20.095 18.02-31.722 25.449v-15.121c11.627-7.432 21.794-16.327 31.722-25.449a132.09 132.09 0 0 0 11.437-11.869" fill="#DC4644" /><path d="M689.871 510.655v15.121c-4.033 2.573-8.241 4.977-12.675 7.146a168.735 168.735 0 0 1-15.906 6.798V524.6a167.74 167.74 0 0 0 15.906-6.799 128.069 128.069 0 0 0 12.675-7.146M661.29 524.604v15.117a160.701 160.701 0 0 1-33.876 8.44v-15.12a161.247 161.247 0 0 0 33.876-8.437" fill="#DC4644" /><path d="M627.415 533.043v15.12a167.757 167.757 0 0 1-22.788 1.533c-3.346 0-6.693 0.039-10.042 0.081-3.289 0.038-6.582 0.078-9.87 0.078-10.994 0-21.958-0.444-32.729-2.82-10.199-2.248-20.193-5.232-30.084-8.367-1.261-0.403-2.348-0.658-3.313-0.658a5.27 5.27 0 0 0-0.663 0.045v-15.121c0.214-0.026 0.438-0.043 0.663-0.043 0.965 0 2.052 0.255 3.313 0.657 9.891 3.134 19.885 6.118 30.084 8.367 10.771 2.376 21.735 2.82 32.729 2.82 3.288 0 6.581-0.039 9.87-0.078 3.347-0.041 6.695-0.08 10.042-0.08 7.752 0 15.347-0.516 22.788-1.534" fill="#DC4644" /><path d="M517.926 522.933v15.12c-0.296 0.038-0.58 0.107-0.857 0.21v-15.121a3.96 3.96 0 0 1 0.857-0.209M517.066 523.142v15.121a3.985 3.985 0 0 0-0.777 0.391v-15.12c0.251-0.165 0.513-0.294 0.777-0.392M516.289 523.531v15.12c-0.421 0.268-0.824 0.629-1.223 1.098v-15.12a5.522 5.522 0 0 1 1.223-1.098" fill="#DC4644" /><path d="M515.068 524.629v15.12a10.07 10.07 0 0 0-0.878 1.233v-15.121c0.29-0.473 0.581-0.884 0.878-1.232" fill="#DC4644" /><path d="M460.329 572.178v15.121c-4.093 3.487-7.294 6.229-10.868 9.285v-15.119c3.574-3.058 6.777-5.799 10.868-9.287z" fill="#DC4644" /><path d="M460.329 572.178v15.121c-4.093 3.487-7.294 6.229-10.868 9.285v-15.119c3.574-3.058 6.777-5.799 10.868-9.287" fill="#DC4644" /><path d="M534.746 568.006v15.121c0 4.115-1.795 7.453-5.218 10.331-15.193 12.813-10.821 11.548-32.723 12.176-0.688 0.021-1.372 0.03-2.046 0.03-10.565 0-19.07-2.515-25.723-10.071-2.532-2.873-5.616-5.375-8.709-8.294v-15.121c3.093 2.92 6.177 5.422 8.709 8.296 6.65 7.559 15.156 10.07 25.723 10.07 0.674 0 1.355-0.011 2.046-0.03 21.9-0.627 17.528 0.638 32.723-12.176 3.423-2.878 5.218-6.217 5.218-10.332z" fill="#DC4644" /><path d="M534.746 568.006v15.121c0 0.279-0.009 0.553-0.024 0.824V568.83c0.015-0.271 0.024-0.544 0.024-0.824M534.722 568.83v15.121c-0.169 2.789-1.197 5.215-3.037 7.378v-15.12c1.836-2.163 2.868-4.588 3.037-7.379M531.685 576.211v15.119a18.09 18.09 0 0 1-2.154 2.128c-5.725 4.828-8.672 7.658-11.294 9.342v-15.12c2.622-1.685 5.569-4.515 11.294-9.342a18.084 18.084 0 0 0 2.154-2.127M518.234 587.68v15.12a13.719 13.719 0 0 1-2.735 1.385v-15.118a13.81 13.81 0 0 0 2.735-1.387M515.499 589.064v15.118c-1.023 0.376-2.119 0.629-3.427 0.81v-15.121c1.309-0.179 2.407-0.432 3.427-0.807M512.072 589.87v15.121c-3.19 0.437-7.632 0.425-15.267 0.643-0.688 0.021-1.372 0.03-2.046 0.03-10.565 0-19.069-2.515-25.723-10.071-2.531-2.873-5.616-5.375-8.709-8.294v-15.121c3.093 2.92 6.178 5.422 8.709 8.296 6.652 7.559 15.156 10.07 25.723 10.07 0.676 0 1.356-0.011 2.046-0.03 7.635-0.217 12.077-0.206 15.267-0.644" fill="#DC4644" /><path d="M470.415 616.349v15.119c0 2.498-0.09 4.988-0.397 7.454-0.435 3.482-2.123 7.562-4.88 9.996-13.046 11.525-11.642 12.411-24.84 12.411-2.229 0-4.877-0.026-8.083-0.03-1.546 0-3.097-0.021-4.646-0.021-0.973 0-1.939 0.01-2.91 0.039v-15.119a91.046 91.046 0 0 1 2.91-0.039c1.55 0 3.101 0.021 4.646 0.021 3.206 0.006 5.854 0.03 8.083 0.03 13.2 0 11.795-0.885 24.84-12.411 2.757-2.437 4.445-6.514 4.88-9.995 0.307-2.469 0.397-4.957 0.397-7.455z" fill="#DC4644" /><path d="M470.415 616.349v15.119c0 1.458-0.031 2.912-0.117 4.361V620.71c0.086-1.449 0.117-2.904 0.117-4.361M470.298 620.71v15.119a47.745 47.745 0 0 1-0.281 3.093c-0.37 2.966-1.648 6.367-3.727 8.814v-15.12c2.077-2.448 3.358-5.85 3.727-8.813a48.66 48.66 0 0 0 0.281-3.093M466.29 632.616v15.12c-0.361 0.424-0.745 0.818-1.153 1.182-6.021 5.322-8.965 8.374-11.688 10.118v-15.12c2.723-1.744 5.665-4.797 11.688-10.118 0.406-0.359 0.792-0.758 1.153-1.182M453.448 643.916v15.12c-0.817 0.525-1.615 0.931-2.47 1.244v-15.12a12.332 12.332 0 0 0 2.47-1.244" fill="#DC4644" /><path d="M450.979 645.16v15.12c-0.923 0.339-1.909 0.569-3.063 0.729V645.89c1.153-0.158 2.141-0.39 3.063-0.73" fill="#DC4644" /><path d="M447.917 645.89v15.119c-1.928 0.265-4.317 0.318-7.62 0.318-2.229 0-4.878-0.025-8.083-0.028-1.546 0-3.097-0.022-4.646-0.022-0.973 0-1.939 0.01-2.91 0.039v-15.119a94.08 94.08 0 0 1 2.91-0.04c1.551 0 3.101 0.021 4.646 0.021 3.205 0.006 5.854 0.03 8.083 0.03 3.303 0 5.692-0.057 7.62-0.318" fill="#DC4644" /><path d="M424.657 646.197v15.119c-6.206 0.014-10.626-1.558-14.334-5.117-4.617-4.415-9.571-8.556-14.631-13.05v-15.12c5.061 4.494 10.015 8.636 14.631 13.05 3.708 3.561 8.128 5.13 14.334 5.118z" fill="#DC4644" /><path d="M424.657 646.197v15.119c-6.206 0.014-10.626-1.558-14.334-5.117-4.617-4.415-9.571-8.556-14.631-13.05v-15.12c5.061 4.494 10.015 8.636 14.631 13.05 3.708 3.561 8.128 5.13 14.334 5.118" fill="#DC4644" /><path d="M760.804 377.547c-0.057 15.532 0.951 31.104-2.758 46.511-5.604 23.344-17.6 43.823-36.453 61.148-13.37 12.286-27.182 24.166-44.396 32.597-22.545 11.03-46.688 16.774-72.57 16.774-3.346 0-6.693 0.038-10.042 0.08-3.289 0.039-6.582 0.078-9.87 0.078-10.994 0-21.958-0.445-32.729-2.82-10.199-2.248-20.193-5.232-30.084-8.367-1.261-0.403-2.348-0.657-3.313-0.657-1.714 0-3.066 0.795-4.398 2.976 4.97 4.172 10.08 8.549 15.313 12.806 3.521 2.867 5.272 6.277 5.243 10.448-0.043 6.257-0.043 12.51 0 18.764 0.037 4.173-1.758 7.551-5.216 10.459-15.196 12.813-10.822 11.549-32.724 12.176-0.688 0.021-1.371 0.03-2.047 0.03-10.565 0-19.069-2.515-25.723-10.069-2.532-2.873-5.616-5.375-8.709-8.298-4.092 3.489-7.294 6.229-10.868 9.286 5.271 4.439 10.368 8.854 15.613 13.129 3.519 2.874 5.214 6.303 5.171 10.474-0.053 6.255 0.544 12.563-0.229 18.736-0.434 3.482-2.122 7.561-4.88 9.994-13.045 11.527-11.642 12.413-24.839 12.413-2.229 0-4.878-0.024-8.083-0.029-1.546 0-3.097-0.022-4.646-0.022-0.973 0-1.939 0.009-2.91 0.041-6.206 0.014-10.626-1.556-14.334-5.117-4.617-4.416-9.571-8.556-14.631-13.05-1.623 1.344-2.958 2.413-4.247 3.521-12.356 10.69-24.875 21.25-36.996 32.131-7.585 6.813-16.277 10.576-27.028 10.576-0.692 0-1.391-0.018-2.102-0.048a149.858 149.858 0 0 0-6.537-0.122c-1.604 0-3.208 0.018-4.813 0.027a407.64 407.64 0 0 1-4.689 0.031c-1.206 0-2.409-0.007-3.609-0.031-2.83-0.058-5.724-0.298-8.465-0.896-16.211-3.515-34.093-23.401-34.093-37.778 0-6.116 0.009-12.219 0-18.332-0.009-6.993 2.686-13.091 8.084-18.283a105.386 105.386 0 0 1 4.173-3.785c53.199-46.079 106.388-92.176 159.676-138.188 2.724-2.357 3.448-4.008 1.698-7.348-8.458-16.075-12.566-33.028-12.403-50.739 0.146-16.114-0.934-32.283 3.438-48.192 6.285-22.871 18.789-42.685 37.483-59.773 18.209-16.632 37.922-31.221 63.132-39.383 16.848-5.452 34.202-8.329 52.174-8.336 5.27 0 10.545-0.06 15.813-0.06 13.351 0 26.672 0.377 39.842 3.031 26.962 5.427 50.196 16.561 70.255 33.122 18.545 15.305 34.817 31.875 44.21 52.852 6.55 14.635 10.178 29.782 10.116 45.512zM605.362 510.274c81.017-7.357 128.292-65.761 128.144-122.256a98.903 98.903 0 0 0-1.443-16.624c-10.23-58.988-70.286-104.681-143.073-104.759-37.502 1.215-73.074 13.826-100.752 40.546-24.334 23.499-36.617 51.758-36.593 80.582 0.022 21.37 6.813 43.055 20.479 63.343 1.673 2.485 2.563 3.997 2.541 5.339-0.026 1.618-1.38 2.981-4.282 5.497-56.045 48.534-112.102 97.073-168.122 145.646-2.595 2.244-5.162 4.626-7.149 7.281-2.966 3.964-4.415 8.313-4.424 12.604-0.013 5.876 2.678 11.634 7.872 16.112 4.934 4.253 11.264 6.521 17.763 6.659 5.627-0.031 10.45-1.214 14.857-3.596 3.496-1.982 6.138-4.078 8.623-6.219 16.792-14.456 33.513-28.98 50.258-43.479 2.812-2.226 4.014-2.818 5.201-2.862 1.895 0.12 3.378 1.039 5.4 2.771 8.54 7.37 16.805 14.604 25.171 21.756 2.921 2.332 4.933 3.282 6.903 3.51 1.899 0.039 2.716-0.1 3.538-0.359 4.889-2.43 6.332-4.601 6.364-6.987 0.026-2.244-1.193-4.681-3.731-6.948-8.421-7.521-17.065-14.841-25.604-22.258-2.073-1.802-3.116-3.076-3.129-4.349-0.013-1.271 1.007-2.534 3.056-4.311 13.282-11.533 26.592-23.044 39.89-34.563 2.94-2.547 4.724-3.857 6.473-3.939 1.99 0 3.813 1.335 6.909 4.006 8.092 6.968 16.075 14.048 24.359 20.851 1.604 1.318 3.149 2.194 4.66 2.67 4.401 0.389 5.921-0.08 7.411-0.941 2.947-1.888 4.158-3.876 4.194-6.04 0.039-2.304-1.253-4.81-3.92-7.172-8.455-7.487-17.082-14.825-25.609-22.25-1.911-1.657-2.869-2.913-2.873-4.173-0.003-1.258 0.949-2.521 2.864-4.18 10.188-8.861 20.412-17.7 30.619-26.549 0.898-0.774 1.343-1.153 1.753-1.496 1.783-1.475 2.937-2.211 4.228-2.294a5.657 5.657 0 0 1 1.864 0.271c0.492 0.151 1.032 0.364 1.646 0.635 0.93 0.412 2.021 0.958 3.363 1.629 22.604 11.188 45.729 17.467 70.478 17.518 4.829-0.007 9.297-0.209 13.823-0.622" fill="#E56E4F" /><path d="M732.063 371.394a98.498 98.498 0 0 1 1.442 16.625c0.147 56.496-47.126 114.898-128.144 122.256-4.524 0.411-8.995 0.611-13.414 0.616-25.164-0.051-48.287-6.326-70.164-17.153-2.069-1.033-3.162-1.581-4.092-1.99a14.415 14.415 0 0 0-1.646-0.636c-0.594-0.184-1.118-0.275-1.616-0.277-1.539 0.09-2.692 0.827-4.475 2.301-0.411 0.345-0.854 0.722-1.343 1.143-10.619 9.203-20.846 18.04-31.029 26.901-1.915 1.661-2.866 2.923-2.864 4.18 0.003 1.26 0.962 2.516 2.873 4.174 8.527 7.427 17.156 14.764 25.61 22.25 2.665 2.361 3.958 4.867 3.92 7.172-0.037 2.165-1.249 4.151-3.594 5.674-2.097 1.23-3.612 1.697-5.168 1.729-4.354-0.896-5.903-1.771-7.508-3.089-8.282-6.806-16.267-13.885-24.358-20.854-3.099-2.67-4.921-4.007-6.737-4.01-1.922 0.083-3.703 1.396-6.644 3.946-13.302 11.518-26.609 23.026-39.892 34.562-2.05 1.776-3.066 3.041-3.056 4.313 0.014 1.271 1.056 2.547 3.129 4.347 8.537 7.417 17.182 14.735 25.601 22.257 2.541 2.27 3.763 4.704 3.733 6.948-0.029 2.389-1.477 4.56-4.26 6.08-2.927 1.169-3.742 1.31-4.56 1.322-3.056-0.279-5.065-1.229-7.242-2.951-9.11-7.764-17.375-14.996-25.702-22.188-2.234-1.912-3.72-2.831-5.167-2.94-1.637 0.034-2.836 0.631-4.329 1.773-18.067 15.576-34.786 30.104-51.579 44.558-2.487 2.141-5.126 4.234-8.039 5.895-4.991 2.706-9.817 3.887-14.579 3.926-7.365-0.144-13.694-2.412-18.625-6.667-5.192-4.479-7.884-10.232-7.872-16.109 0.01-4.288 1.458-8.641 4.424-12.604 1.987-2.655 4.555-5.037 7.15-7.284 56.019-48.568 112.074-97.104 168.122-145.645 2.903-2.516 4.255-3.879 4.282-5.496 0.021-1.338-0.868-2.854-2.54-5.337-13.667-20.291-20.457-41.974-20.479-63.346-0.024-28.824 12.258-57.08 36.589-80.58 27.68-26.721 63.252-39.331 100.754-40.547 72.796 0.075 132.854 45.768 143.088 104.755z m-86.919 18.598c0.021-0.493 0.03-0.987 0.031-1.476 0.033-24.432-24.094-44.872-50.85-45.196a70.042 70.042 0 0 0-0.646-0.003c-0.309 0.001-0.619 0.002-0.928 0.008-30.054 0.535-52.473 19.46-52.473 45.451-0.018 0.182-0.027 0.366-0.04 0.547-0.03 0.463-0.047 0.92-0.058 1.38-0.44 22.579 23.666 43.583 51.177 43.668 0.346 0.001 0.528 0 0.711-0.001 0.182-0.001 0.36-0.003 0.547-0.008 29.198-0.602 51.511-19.685 52.529-44.37" fill="#F6B69D" /><path d="M395.691 628.029v15.12c-1.623 1.344-2.958 2.411-4.247 3.521-12.356 10.691-24.875 21.251-36.996 32.134-7.585 6.813-16.277 10.575-27.028 10.575-0.691 0-1.391-0.016-2.102-0.048a149.887 149.887 0 0 0-6.537-0.122c-1.604 0-3.208 0.015-4.813 0.027-1.563 0.018-3.129 0.029-4.689 0.029-1.206 0-2.409-0.007-3.609-0.029-2.83-0.058-5.724-0.298-8.465-0.896-16.211-3.514-34.093-23.401-34.093-37.781V635.44c0 14.377 17.881 34.266 34.093 37.778 2.74 0.6 5.635 0.839 8.465 0.896 1.201 0.024 2.404 0.03 3.609 0.03 1.563 0 3.128-0.016 4.689-0.03 1.604-0.016 3.207-0.027 4.813-0.027 2.182 0 4.36 0.026 6.537 0.122 0.71 0.031 1.41 0.048 2.102 0.048 10.751 0 19.444-3.764 27.028-10.575 12.12-10.883 24.639-21.439 36.996-32.133 1.289-1.107 2.624-2.175 4.247-3.52z" fill="#DC4644" /><path d="M395.691 628.029v15.12c-1.623 1.344-2.958 2.411-4.247 3.521-12.356 10.691-24.875 21.251-36.996 32.134-1.902 1.706-3.873 3.226-5.929 4.537v-15.119c2.056-1.313 4.025-2.83 5.929-4.538 12.12-10.883 24.639-21.439 36.996-32.133 1.289-1.109 2.624-2.177 4.247-3.522" fill="#DC4644" /><path d="M348.52 668.221v15.12a38.198 38.198 0 0 1-7.414 3.696v-15.119a38.288 38.288 0 0 0 7.414-3.697M341.105 671.918v15.119a37.682 37.682 0 0 1-7.925 1.96v-15.12a37.882 37.882 0 0 0 7.925-1.959" fill="#DC4644" /><path d="M333.182 673.876v15.121a42.542 42.542 0 0 1-5.761 0.381c-0.692 0-1.391-0.015-2.102-0.048a151.45 151.45 0 0 0-6.537-0.121c-1.604 0-3.208 0.015-4.813 0.027-1.563 0.019-3.129 0.029-4.689 0.029-1.206 0-2.409-0.007-3.609-0.029-2.83-0.059-5.724-0.301-8.465-0.896-16.211-3.514-34.093-23.404-34.093-37.781v-15.12c0 14.38 17.881 34.269 34.093 37.781 2.74 0.6 5.635 0.838 8.465 0.896 1.201 0.024 2.404 0.031 3.609 0.031 1.563 0 3.128-0.017 4.689-0.031 1.604-0.016 3.207-0.027 4.813-0.027 2.182 0 4.362 0.026 6.537 0.122 0.71 0.031 1.409 0.048 2.102 0.048 1.988 0 3.907-0.129 5.761-0.383" fill="#DC4644" /></svg>